<mxfile host="Electron" agent="Mozilla/5.0 (Macintosh; Intel Mac OS X 10_15_7) AppleWebKit/537.36 (KHTML, like Gecko) draw.io/28.0.4 Chrome/138.0.7204.97 Electron/37.2.1 Safari/537.36" border="50" scale="3" compressed="false" locked="false" version="28.0.4">
  <diagram name="Blank" id="YmL12bMKpDGza6XwsDPr">
    <mxGraphModel dx="3577" dy="1920" grid="0" gridSize="10" guides="1" tooltips="1" connect="1" arrows="1" fold="1" page="0" pageScale="1" pageWidth="827" pageHeight="1169" background="none" math="1" shadow="0">
      <root>
        <mxCell id="X5NqExCQtvZxIxQ7pmgY-0" />
        <mxCell id="1" parent="X5NqExCQtvZxIxQ7pmgY-0" />
        <mxCell id="Gr0Zq-AI6Quabplr0KPa-179" value="Mindmap" style="swimlane;html=1;startSize=20;horizontal=1;containerType=tree;labelBackgroundColor=none;strokeColor=#D4E1F5;strokeWidth=1;fillColor=none;fontFamily=Comic Sans MS;fontSize=9;swimlaneLine=0;dashed=1;collapsible=0;" parent="1" vertex="1">
          <mxGeometry x="-544" y="-223" width="1668" height="1456" as="geometry" />
        </mxCell>
        <mxCell id="3ZwbxLmu363zwxlwSWek-23" style="edgeStyle=orthogonalEdgeStyle;rounded=0;orthogonalLoop=1;jettySize=auto;html=1;exitX=0;exitY=0.5;exitDx=0;exitDy=0;entryX=1;entryY=0.5;entryDx=0;entryDy=0;" edge="1" parent="Gr0Zq-AI6Quabplr0KPa-179" source="3ZwbxLmu363zwxlwSWek-2" target="3ZwbxLmu363zwxlwSWek-21">
          <mxGeometry relative="1" as="geometry" />
        </mxCell>
        <mxCell id="3ZwbxLmu363zwxlwSWek-24" style="edgeStyle=orthogonalEdgeStyle;rounded=0;orthogonalLoop=1;jettySize=auto;html=1;exitX=1;exitY=0.5;exitDx=0;exitDy=0;entryX=0;entryY=0.5;entryDx=0;entryDy=0;" edge="1" parent="Gr0Zq-AI6Quabplr0KPa-179" source="3ZwbxLmu363zwxlwSWek-2" target="3ZwbxLmu363zwxlwSWek-20">
          <mxGeometry relative="1" as="geometry" />
        </mxCell>
        <mxCell id="3ZwbxLmu363zwxlwSWek-25" style="edgeStyle=orthogonalEdgeStyle;rounded=0;orthogonalLoop=1;jettySize=auto;html=1;exitX=0.5;exitY=0;exitDx=0;exitDy=0;entryX=0.5;entryY=1;entryDx=0;entryDy=0;" edge="1" parent="Gr0Zq-AI6Quabplr0KPa-179" source="3ZwbxLmu363zwxlwSWek-2" target="3ZwbxLmu363zwxlwSWek-22">
          <mxGeometry relative="1" as="geometry" />
        </mxCell>
        <mxCell id="3ZwbxLmu363zwxlwSWek-26" style="edgeStyle=orthogonalEdgeStyle;rounded=0;orthogonalLoop=1;jettySize=auto;html=1;exitX=0.5;exitY=1;exitDx=0;exitDy=0;" edge="1" parent="Gr0Zq-AI6Quabplr0KPa-179" source="3ZwbxLmu363zwxlwSWek-2" target="3ZwbxLmu363zwxlwSWek-19">
          <mxGeometry relative="1" as="geometry" />
        </mxCell>
        <mxCell id="3ZwbxLmu363zwxlwSWek-2" value="Безопасность данных" style="ellipse;whiteSpace=wrap;html=1;aspect=fixed;" vertex="1" parent="Gr0Zq-AI6Quabplr0KPa-179">
          <mxGeometry x="575.75" y="603" width="208.5" height="208.5" as="geometry" />
        </mxCell>
        <mxCell id="3ZwbxLmu363zwxlwSWek-32" style="edgeStyle=orthogonalEdgeStyle;rounded=0;orthogonalLoop=1;jettySize=auto;html=1;exitX=0.5;exitY=1;exitDx=0;exitDy=0;" edge="1" parent="Gr0Zq-AI6Quabplr0KPa-179" source="3ZwbxLmu363zwxlwSWek-19" target="3ZwbxLmu363zwxlwSWek-8">
          <mxGeometry relative="1" as="geometry" />
        </mxCell>
        <mxCell id="3ZwbxLmu363zwxlwSWek-19" value="Публичные данные" style="ellipse;whiteSpace=wrap;html=1;aspect=fixed;" vertex="1" parent="Gr0Zq-AI6Quabplr0KPa-179">
          <mxGeometry x="600" y="892" width="160" height="160" as="geometry" />
        </mxCell>
        <mxCell id="3ZwbxLmu363zwxlwSWek-27" style="edgeStyle=orthogonalEdgeStyle;rounded=0;orthogonalLoop=1;jettySize=auto;html=1;exitX=0;exitY=0;exitDx=0;exitDy=0;entryX=1;entryY=1;entryDx=0;entryDy=0;" edge="1" parent="Gr0Zq-AI6Quabplr0KPa-179" source="3ZwbxLmu363zwxlwSWek-21" target="3ZwbxLmu363zwxlwSWek-6">
          <mxGeometry relative="1" as="geometry" />
        </mxCell>
        <mxCell id="3ZwbxLmu363zwxlwSWek-28" style="edgeStyle=orthogonalEdgeStyle;rounded=0;orthogonalLoop=1;jettySize=auto;html=1;exitX=0;exitY=1;exitDx=0;exitDy=0;entryX=1;entryY=0;entryDx=0;entryDy=0;" edge="1" parent="Gr0Zq-AI6Quabplr0KPa-179" source="3ZwbxLmu363zwxlwSWek-21" target="3ZwbxLmu363zwxlwSWek-4">
          <mxGeometry relative="1" as="geometry" />
        </mxCell>
        <mxCell id="3ZwbxLmu363zwxlwSWek-21" value="Конфиденциальные данные" style="ellipse;whiteSpace=wrap;html=1;aspect=fixed;" vertex="1" parent="Gr0Zq-AI6Quabplr0KPa-179">
          <mxGeometry x="311.5" y="627.25" width="160" height="160" as="geometry" />
        </mxCell>
        <mxCell id="3ZwbxLmu363zwxlwSWek-33" style="edgeStyle=orthogonalEdgeStyle;rounded=0;orthogonalLoop=1;jettySize=auto;html=1;exitX=0.5;exitY=0;exitDx=0;exitDy=0;entryX=0.5;entryY=1;entryDx=0;entryDy=0;" edge="1" parent="Gr0Zq-AI6Quabplr0KPa-179" source="3ZwbxLmu363zwxlwSWek-22" target="3ZwbxLmu363zwxlwSWek-3">
          <mxGeometry relative="1" as="geometry" />
        </mxCell>
        <mxCell id="3ZwbxLmu363zwxlwSWek-22" value="Секретные данные" style="ellipse;whiteSpace=wrap;html=1;aspect=fixed;" vertex="1" parent="Gr0Zq-AI6Quabplr0KPa-179">
          <mxGeometry x="600" y="325" width="160" height="160" as="geometry" />
        </mxCell>
        <mxCell id="3ZwbxLmu363zwxlwSWek-29" style="edgeStyle=orthogonalEdgeStyle;rounded=0;orthogonalLoop=1;jettySize=auto;html=1;exitX=1;exitY=0.5;exitDx=0;exitDy=0;entryX=0;entryY=0.5;entryDx=0;entryDy=0;" edge="1" parent="Gr0Zq-AI6Quabplr0KPa-179" source="3ZwbxLmu363zwxlwSWek-20" target="3ZwbxLmu363zwxlwSWek-5">
          <mxGeometry relative="1" as="geometry" />
        </mxCell>
        <mxCell id="3ZwbxLmu363zwxlwSWek-30" style="edgeStyle=orthogonalEdgeStyle;rounded=0;orthogonalLoop=1;jettySize=auto;html=1;exitX=1;exitY=0;exitDx=0;exitDy=0;entryX=0;entryY=1;entryDx=0;entryDy=0;" edge="1" parent="Gr0Zq-AI6Quabplr0KPa-179" source="3ZwbxLmu363zwxlwSWek-20" target="3ZwbxLmu363zwxlwSWek-16">
          <mxGeometry relative="1" as="geometry" />
        </mxCell>
        <mxCell id="3ZwbxLmu363zwxlwSWek-31" style="edgeStyle=orthogonalEdgeStyle;rounded=0;orthogonalLoop=1;jettySize=auto;html=1;exitX=1;exitY=1;exitDx=0;exitDy=0;entryX=0;entryY=0;entryDx=0;entryDy=0;" edge="1" parent="Gr0Zq-AI6Quabplr0KPa-179" source="3ZwbxLmu363zwxlwSWek-20" target="3ZwbxLmu363zwxlwSWek-7">
          <mxGeometry relative="1" as="geometry" />
        </mxCell>
        <mxCell id="3ZwbxLmu363zwxlwSWek-20" value="Внутренние данные" style="ellipse;whiteSpace=wrap;html=1;aspect=fixed;" vertex="1" parent="Gr0Zq-AI6Quabplr0KPa-179">
          <mxGeometry x="888.5" y="627.25" width="160" height="160" as="geometry" />
        </mxCell>
        <mxCell id="3ZwbxLmu363zwxlwSWek-56" style="edgeStyle=orthogonalEdgeStyle;rounded=0;orthogonalLoop=1;jettySize=auto;html=1;exitX=0;exitY=0.5;exitDx=0;exitDy=0;entryX=1;entryY=0.5;entryDx=0;entryDy=0;" edge="1" parent="Gr0Zq-AI6Quabplr0KPa-179" source="3ZwbxLmu363zwxlwSWek-3" target="3ZwbxLmu363zwxlwSWek-43">
          <mxGeometry relative="1" as="geometry" />
        </mxCell>
        <mxCell id="3ZwbxLmu363zwxlwSWek-57" style="edgeStyle=orthogonalEdgeStyle;rounded=0;orthogonalLoop=1;jettySize=auto;html=1;exitX=1;exitY=0.5;exitDx=0;exitDy=0;entryX=0;entryY=0.5;entryDx=0;entryDy=0;" edge="1" parent="Gr0Zq-AI6Quabplr0KPa-179" source="3ZwbxLmu363zwxlwSWek-3" target="3ZwbxLmu363zwxlwSWek-44">
          <mxGeometry relative="1" as="geometry" />
        </mxCell>
        <mxCell id="3ZwbxLmu363zwxlwSWek-3" value="Финансовый учет" style="ellipse;whiteSpace=wrap;html=1;aspect=fixed;" vertex="1" parent="Gr0Zq-AI6Quabplr0KPa-179">
          <mxGeometry x="606.75" y="43" width="146.5" height="146.5" as="geometry" />
        </mxCell>
        <mxCell id="3ZwbxLmu363zwxlwSWek-6" value="Персональные данные покупателей и собственников" style="ellipse;whiteSpace=wrap;html=1;aspect=fixed;" vertex="1" parent="Gr0Zq-AI6Quabplr0KPa-179">
          <mxGeometry x="122" y="456.5" width="146.5" height="146.5" as="geometry" />
        </mxCell>
        <mxCell id="3ZwbxLmu363zwxlwSWek-62" style="edgeStyle=orthogonalEdgeStyle;rounded=0;orthogonalLoop=1;jettySize=auto;html=1;exitX=0.5;exitY=1;exitDx=0;exitDy=0;entryX=0.5;entryY=0;entryDx=0;entryDy=0;" edge="1" parent="Gr0Zq-AI6Quabplr0KPa-179" source="3ZwbxLmu363zwxlwSWek-8" target="3ZwbxLmu363zwxlwSWek-45">
          <mxGeometry relative="1" as="geometry" />
        </mxCell>
        <mxCell id="3ZwbxLmu363zwxlwSWek-8" value="Данные продаваемых квартир" style="ellipse;whiteSpace=wrap;html=1;aspect=fixed;" vertex="1" parent="Gr0Zq-AI6Quabplr0KPa-179">
          <mxGeometry x="606.75" y="1144" width="146.5" height="146.5" as="geometry" />
        </mxCell>
        <mxCell id="3ZwbxLmu363zwxlwSWek-5" value="Заявки на туры" style="ellipse;whiteSpace=wrap;html=1;aspect=fixed;" vertex="1" parent="Gr0Zq-AI6Quabplr0KPa-179">
          <mxGeometry x="1128" y="634" width="146.5" height="146.5" as="geometry" />
        </mxCell>
        <mxCell id="3ZwbxLmu363zwxlwSWek-64" style="edgeStyle=orthogonalEdgeStyle;rounded=0;orthogonalLoop=1;jettySize=auto;html=1;exitX=1;exitY=1;exitDx=0;exitDy=0;entryX=0;entryY=0.5;entryDx=0;entryDy=0;" edge="1" parent="Gr0Zq-AI6Quabplr0KPa-179" source="3ZwbxLmu363zwxlwSWek-7" target="3ZwbxLmu363zwxlwSWek-49">
          <mxGeometry relative="1" as="geometry" />
        </mxCell>
        <mxCell id="3ZwbxLmu363zwxlwSWek-7" value="Услуги для собственников" style="ellipse;whiteSpace=wrap;html=1;aspect=fixed;" vertex="1" parent="Gr0Zq-AI6Quabplr0KPa-179">
          <mxGeometry x="1048.5" y="884" width="146.5" height="146.5" as="geometry" />
        </mxCell>
        <mxCell id="3ZwbxLmu363zwxlwSWek-16" value="&quot;Накопленные данные&quot; для BI-, ML- и AI-технологий" style="ellipse;whiteSpace=wrap;html=1;aspect=fixed;" vertex="1" parent="Gr0Zq-AI6Quabplr0KPa-179">
          <mxGeometry x="1048.5" y="369" width="146.5" height="146.5" as="geometry" />
        </mxCell>
        <mxCell id="3ZwbxLmu363zwxlwSWek-60" style="edgeStyle=orthogonalEdgeStyle;rounded=0;orthogonalLoop=1;jettySize=auto;html=1;exitX=0;exitY=0;exitDx=0;exitDy=0;entryX=1;entryY=0.5;entryDx=0;entryDy=0;" edge="1" parent="Gr0Zq-AI6Quabplr0KPa-179" source="3ZwbxLmu363zwxlwSWek-4" target="3ZwbxLmu363zwxlwSWek-54">
          <mxGeometry relative="1" as="geometry" />
        </mxCell>
        <mxCell id="3ZwbxLmu363zwxlwSWek-4" value="Данные устройств умного дома." style="ellipse;whiteSpace=wrap;html=1;aspect=fixed;" vertex="1" parent="Gr0Zq-AI6Quabplr0KPa-179">
          <mxGeometry x="122" y="811.5" width="146.5" height="146.5" as="geometry" />
        </mxCell>
        <mxCell id="3ZwbxLmu363zwxlwSWek-43" value="&lt;div&gt;Утечка данных.&lt;/div&gt;&lt;div&gt;Обоснование: Утечка этих данных может привести к серьёзным последствиям, включая мошенничество, а также нарушения законодательства о защите финансовых данных.&lt;/div&gt;&lt;div&gt;Оценка: Высокое воздействие&lt;/div&gt;" style="rounded=1;whiteSpace=wrap;html=1;align=left;" vertex="1" parent="Gr0Zq-AI6Quabplr0KPa-179">
          <mxGeometry x="204" y="60.37" width="332" height="111.75" as="geometry" />
        </mxCell>
        <mxCell id="3ZwbxLmu363zwxlwSWek-44" value="&lt;div&gt;Потеря данных&lt;/div&gt;&lt;div&gt;Обоснование: Потеря данных может привести к невозможности произвести оплату за услуги, к потере истории оплаты, а также к репутационным потерям.&lt;/div&gt;&lt;div&gt;Оценка: Высокое воздействие&lt;/div&gt;" style="rounded=1;whiteSpace=wrap;html=1;align=left;" vertex="1" parent="Gr0Zq-AI6Quabplr0KPa-179">
          <mxGeometry x="824" y="76.25" width="332" height="80" as="geometry" />
        </mxCell>
        <mxCell id="3ZwbxLmu363zwxlwSWek-45" value="&lt;div&gt;Потеря данных&lt;/div&gt;&lt;div&gt;Обоснование: Потеря данных приведет к финансовым потерям из-за приостановки продаж квартир на время восстановления данных. Также возможны репутационные потери, из-за которых клиенты могут отказаться от покупки квартиры.&lt;/div&gt;&lt;div&gt;Оценка: Умеренное воздействие&lt;/div&gt;" style="rounded=1;whiteSpace=wrap;html=1;align=left;" vertex="1" parent="Gr0Zq-AI6Quabplr0KPa-179">
          <mxGeometry x="488" y="1355" width="384" height="113" as="geometry" />
        </mxCell>
        <mxCell id="3ZwbxLmu363zwxlwSWek-49" value="&lt;div&gt;Потеря данных&lt;/div&gt;&lt;div&gt;Обоснование: Потеря данных потребует затрат на восстановление потеряной информации в системе. На это время будет невозможно выполнить заказы на потеряные услуги.&lt;/div&gt;&lt;div&gt;Оценка: Умеренное воздействие&lt;/div&gt;" style="rounded=1;whiteSpace=wrap;html=1;align=left;" vertex="1" parent="Gr0Zq-AI6Quabplr0KPa-179">
          <mxGeometry x="1303" y="1096" width="372" height="102" as="geometry" />
        </mxCell>
        <mxCell id="3ZwbxLmu363zwxlwSWek-54" value="&lt;div&gt;Утечка данных&lt;/div&gt;&lt;div&gt;Обоснование: Утечка данных дас возможность посторонним людям подключиться к устройсвам в домах клиентов. Это пможет привести к целому ряду незаконных действий по отношению к пользователям, от мошенничества до грабежа, а также к нарушению законодательства о защите персональных данных.&lt;/div&gt;&lt;div&gt;Оценка: Высокое воздействие&lt;/div&gt;" style="rounded=1;whiteSpace=wrap;html=1;align=left;" vertex="1" parent="Gr0Zq-AI6Quabplr0KPa-179">
          <mxGeometry x="-358" y="787.25" width="419" height="138.75" as="geometry" />
        </mxCell>
        <mxCell id="3ZwbxLmu363zwxlwSWek-48" value="&lt;div&gt;Утечка данных&lt;/div&gt;&lt;div&gt;Обоснование: Утечка данных приведет к попаданию в публичный доступ описания услуг компании.&lt;/div&gt;&lt;div&gt;Оценка: Низкое воздействие&lt;/div&gt;" style="rounded=1;whiteSpace=wrap;html=1;align=left;" vertex="1" parent="Gr0Zq-AI6Quabplr0KPa-179">
          <mxGeometry x="1303" y="905.75" width="365" height="103" as="geometry" />
        </mxCell>
        <mxCell id="3ZwbxLmu363zwxlwSWek-63" style="edgeStyle=orthogonalEdgeStyle;rounded=0;orthogonalLoop=1;jettySize=auto;html=1;exitX=1;exitY=0.5;exitDx=0;exitDy=0;" edge="1" parent="Gr0Zq-AI6Quabplr0KPa-179" source="3ZwbxLmu363zwxlwSWek-7" target="3ZwbxLmu363zwxlwSWek-48">
          <mxGeometry relative="1" as="geometry" />
        </mxCell>
        <mxCell id="3ZwbxLmu363zwxlwSWek-41" value="&lt;div&gt;Утечка данных&lt;br&gt;Обоснование: Утечка данных приведет к попаданию в публичный доступ описания услуг компании.&lt;/div&gt;&lt;div&gt;Оценка: Низкое воздействие&lt;/div&gt;" style="rounded=1;whiteSpace=wrap;html=1;align=left;" vertex="1" parent="1">
          <mxGeometry x="-812" y="153.5" width="332" height="80" as="geometry" />
        </mxCell>
        <mxCell id="3ZwbxLmu363zwxlwSWek-42" value="&lt;div&gt;Потеря данных&lt;/div&gt;&lt;div&gt;Обоснование: Потеря данных может привести к невозможности использования сервисов клиентами, что повлечет за собой финансовые и репутационные риски.&lt;/div&gt;&lt;div&gt;Оценка: Умеренное воздействие&lt;/div&gt;" style="rounded=1;whiteSpace=wrap;html=1;align=left;" vertex="1" parent="1">
          <mxGeometry x="-812" y="257" width="332" height="80" as="geometry" />
        </mxCell>
        <mxCell id="3ZwbxLmu363zwxlwSWek-46" value="&lt;div&gt;Утечка данных.&lt;/div&gt;&lt;div&gt;Обоснование: Утечка данных может привести к репутационным потерям, из-за которых клиенты могут отказаться от покупки квартиры, а следовательно возможны еще и финансовые потери.&lt;/div&gt;&lt;div&gt;Оценка: Умеренное воздействие&lt;/div&gt;" style="rounded=1;whiteSpace=wrap;html=1;align=left;" vertex="1" parent="1">
          <mxGeometry x="798" y="365" width="369" height="120" as="geometry" />
        </mxCell>
        <mxCell id="3ZwbxLmu363zwxlwSWek-47" value="&lt;div&gt;Потеря данных&lt;/div&gt;&lt;div&gt;Обоснование: Туры придется назначать заново. Это вызовет недовольство клиентов и может повлечь отказ от покупки квартиры.&lt;/div&gt;&lt;div&gt;Оценка: Умеренное воздействие&lt;/div&gt;" style="rounded=1;whiteSpace=wrap;html=1;align=left;" vertex="1" parent="1">
          <mxGeometry x="798" y="510" width="379" height="103" as="geometry" />
        </mxCell>
        <mxCell id="3ZwbxLmu363zwxlwSWek-53" value="&lt;div&gt;Некачественные данные&lt;/div&gt;&lt;div&gt;Обоснование: Некачественные данные усложнят реализацию BI-, ML- и AI решения и задерржат его выход на использование.&lt;/div&gt;&lt;div&gt;Оценка: Низкое воздействие&lt;/div&gt;" style="rounded=1;whiteSpace=wrap;html=1;align=left;" vertex="1" parent="1">
          <mxGeometry x="868" y="230" width="332" height="80" as="geometry" />
        </mxCell>
        <mxCell id="3ZwbxLmu363zwxlwSWek-52" value="&lt;div&gt;Искажение данных&lt;/div&gt;&lt;div&gt;Обоснование: Искажение данных задержит выход BI-, ML- и AI решения на коммерческое использование.&lt;/div&gt;&lt;div&gt;Оценка: Низкое воздействие&lt;/div&gt;" style="rounded=1;whiteSpace=wrap;html=1;align=left;" vertex="1" parent="1">
          <mxGeometry x="868" y="128" width="332" height="80" as="geometry" />
        </mxCell>
        <mxCell id="3ZwbxLmu363zwxlwSWek-51" value="&lt;div&gt;Потеря данных&lt;/div&gt;&lt;div&gt;Обоснование: Потеря данных задержит выход BI-, ML- и AI решения на коммерческое использование.&lt;/div&gt;&lt;div&gt;Оценка: Низкое воздействие&lt;/div&gt;" style="rounded=1;whiteSpace=wrap;html=1;align=left;" vertex="1" parent="1">
          <mxGeometry x="831" y="14" width="332" height="80" as="geometry" />
        </mxCell>
        <mxCell id="3ZwbxLmu363zwxlwSWek-50" value="&lt;div&gt;Утечка данных&lt;/div&gt;&lt;div&gt;Обоснование: Потеря обезличеных неструктурированных данных может привести к репутационным потерям, но не повлечет никаких более серьезных рисков.&lt;/div&gt;&lt;div&gt;Оценка: Низкое воздействие&lt;/div&gt;" style="rounded=1;whiteSpace=wrap;html=1;align=left;" vertex="1" parent="1">
          <mxGeometry x="823" y="-82" width="332" height="80" as="geometry" />
        </mxCell>
        <mxCell id="3ZwbxLmu363zwxlwSWek-58" style="edgeStyle=orthogonalEdgeStyle;rounded=0;orthogonalLoop=1;jettySize=auto;html=1;exitX=0;exitY=0.5;exitDx=0;exitDy=0;entryX=1;entryY=0.5;entryDx=0;entryDy=0;" edge="1" parent="1" source="3ZwbxLmu363zwxlwSWek-6" target="3ZwbxLmu363zwxlwSWek-42">
          <mxGeometry relative="1" as="geometry" />
        </mxCell>
        <mxCell id="3ZwbxLmu363zwxlwSWek-59" style="edgeStyle=orthogonalEdgeStyle;rounded=0;orthogonalLoop=1;jettySize=auto;html=1;exitX=0;exitY=0;exitDx=0;exitDy=0;entryX=1;entryY=0.5;entryDx=0;entryDy=0;" edge="1" parent="1" source="3ZwbxLmu363zwxlwSWek-6" target="3ZwbxLmu363zwxlwSWek-41">
          <mxGeometry relative="1" as="geometry" />
        </mxCell>
        <mxCell id="3ZwbxLmu363zwxlwSWek-65" style="edgeStyle=orthogonalEdgeStyle;rounded=0;orthogonalLoop=1;jettySize=auto;html=1;exitX=1;exitY=0;exitDx=0;exitDy=0;entryX=0;entryY=0.5;entryDx=0;entryDy=0;" edge="1" parent="1" source="3ZwbxLmu363zwxlwSWek-5" target="3ZwbxLmu363zwxlwSWek-46">
          <mxGeometry relative="1" as="geometry" />
        </mxCell>
        <mxCell id="3ZwbxLmu363zwxlwSWek-66" style="edgeStyle=orthogonalEdgeStyle;rounded=0;orthogonalLoop=1;jettySize=auto;html=1;exitX=1;exitY=1;exitDx=0;exitDy=0;" edge="1" parent="1" source="3ZwbxLmu363zwxlwSWek-5" target="3ZwbxLmu363zwxlwSWek-47">
          <mxGeometry relative="1" as="geometry" />
        </mxCell>
        <mxCell id="3ZwbxLmu363zwxlwSWek-69" style="edgeStyle=orthogonalEdgeStyle;rounded=0;orthogonalLoop=1;jettySize=auto;html=1;exitX=1;exitY=1;exitDx=0;exitDy=0;" edge="1" parent="1" source="3ZwbxLmu363zwxlwSWek-16" target="3ZwbxLmu363zwxlwSWek-53">
          <mxGeometry relative="1" as="geometry" />
        </mxCell>
        <mxCell id="3ZwbxLmu363zwxlwSWek-70" style="edgeStyle=orthogonalEdgeStyle;rounded=0;orthogonalLoop=1;jettySize=auto;html=1;exitX=1;exitY=0.5;exitDx=0;exitDy=0;entryX=0;entryY=0.5;entryDx=0;entryDy=0;" edge="1" parent="1" source="3ZwbxLmu363zwxlwSWek-16" target="3ZwbxLmu363zwxlwSWek-52">
          <mxGeometry relative="1" as="geometry" />
        </mxCell>
        <mxCell id="3ZwbxLmu363zwxlwSWek-71" style="edgeStyle=orthogonalEdgeStyle;rounded=0;orthogonalLoop=1;jettySize=auto;html=1;exitX=1;exitY=0;exitDx=0;exitDy=0;entryX=0;entryY=0.5;entryDx=0;entryDy=0;" edge="1" parent="1" source="3ZwbxLmu363zwxlwSWek-16" target="3ZwbxLmu363zwxlwSWek-51">
          <mxGeometry relative="1" as="geometry" />
        </mxCell>
        <mxCell id="3ZwbxLmu363zwxlwSWek-72" style="edgeStyle=orthogonalEdgeStyle;rounded=0;orthogonalLoop=1;jettySize=auto;html=1;exitX=0.5;exitY=0;exitDx=0;exitDy=0;entryX=0;entryY=0.5;entryDx=0;entryDy=0;" edge="1" parent="1" source="3ZwbxLmu363zwxlwSWek-16" target="3ZwbxLmu363zwxlwSWek-50">
          <mxGeometry relative="1" as="geometry" />
        </mxCell>
        <mxCell id="3ZwbxLmu363zwxlwSWek-55" value="&lt;div&gt;Потеря данных&lt;/div&gt;&lt;div&gt;Обоснование: Пользователям придется востанавливать все подключения к устройствам, это приведет к репутационным потерям.&lt;/div&gt;&lt;div&gt;Оценка: Низкое воздействие.&lt;/div&gt;" style="rounded=1;whiteSpace=wrap;html=1;align=left;" vertex="1" parent="1">
          <mxGeometry x="-882" y="768" width="332" height="80" as="geometry" />
        </mxCell>
        <mxCell id="3ZwbxLmu363zwxlwSWek-61" style="edgeStyle=orthogonalEdgeStyle;rounded=0;orthogonalLoop=1;jettySize=auto;html=1;exitX=0;exitY=1;exitDx=0;exitDy=0;entryX=1;entryY=0.5;entryDx=0;entryDy=0;" edge="1" parent="1" source="3ZwbxLmu363zwxlwSWek-4" target="3ZwbxLmu363zwxlwSWek-55">
          <mxGeometry relative="1" as="geometry" />
        </mxCell>
      </root>
    </mxGraphModel>
  </diagram>
</mxfile>
